<svg xmlns="http://www.w3.org/2000/svg" viewBox="0 0 1200 400" role="img" aria-hidden="true">
<defs>
<linearGradient id="bg" x1="0" y1="0" x2="1" y2="1">
<stop offset="0" stop-color="#151a1e"/><stop offset="1" stop-color="#1e2a2e"/>
</linearGradient>
<radialGradient id="glow" cx="0.75" cy="0.3" r="0.9">
<stop offset="0" stop-color="#2dd4bf" stop-opacity="0.25"/><stop offset="1" stop-color="#2dd4bf" stop-opacity="0"/>
</radialGradient>
</defs>
<rect width="1200" height="400" fill="url(#bg)"/>
<rect width="1200" height="400" fill="url(#glow)"/>
<rect x="120" y="60" width="21" height="21" rx="3" fill="#2dd4bf" opacity="0.23"/><rect x="144" y="60" width="21" height="21" rx="3" fill="#2dd4bf" opacity="0.32"/><rect x="168" y="60" width="21" height="21" rx="3" fill="#f59e0b" opacity="0.08"/><rect x="192" y="60" width="21" height="21" rx="3" fill="#f59e0b" opacity="0.09"/><rect x="240" y="60" width="21" height="21" rx="3" fill="#2dd4bf" opacity="0.24"/><rect x="264" y="60" width="21" height="21" rx="3" fill="#2dd4bf" opacity="0.18"/><rect x="288" y="60" width="21" height="21" rx="3" fill="#2dd4bf" opacity="0.26"/><rect x="312" y="60" width="21" height="21" rx="3" fill="#f59e0b" opacity="0.09"/><rect x="336" y="60" width="21" height="21" rx="3" fill="#2dd4bf" opacity="0.14"/><rect x="360" y="60" width="21" height="21" rx="3" fill="#f59e0b" opacity="0.07"/><rect x="384" y="60" width="21" height="21" rx="3" fill="#2dd4bf" opacity="0.27"/><rect x="408" y="60" width="21" height="21" rx="3" fill="#2dd4bf" opacity="0.22"/><rect x="432" y="60" width="21" height="21" rx="3" fill="#f59e0b" opacity="0.07"/><rect x="120" y="84" width="21" height="21" rx="3" fill="#2dd4bf" opacity="0.31"/><rect x="144" y="84" width="21" height="21" rx="3" fill="#2dd4bf" opacity="0.29"/><rect x="168" y="84" width="21" height="21" rx="3" fill="#2dd4bf" opacity="0.34"/><rect x="192" y="84" width="21" height="21" rx="3" fill="#f59e0b" opacity="0.10"/><rect x="216" y="84" width="21" height="21" rx="3" fill="#2dd4bf" opacity="0.15"/><rect x="240" y="84" width="21" height="21" rx="3" fill="#2dd4bf" opacity="0.24"/><rect x="264" y="84" width="21" height="21" rx="3" fill="#f59e0b" opacity="0.10"/><rect x="288" y="84" width="21" height="21" rx="3" fill="#2dd4bf" opacity="0.26"/><rect x="312" y="84" width="21" height="21" rx="3" fill="#2dd4bf" opacity="0.29"/><rect x="336" y="84" width="21" height="21" rx="3" fill="#2dd4bf" opacity="0.25"/><rect x="384" y="84" width="21" height="21" rx="3" fill="#2dd4bf" opacity="0.27"/><rect x="408" y="84" width="21" height="21" rx="3" fill="#2dd4bf" opacity="0.32"/><rect x="432" y="84" width="21" height="21" rx="3" fill="#f59e0b" opacity="0.08"/><rect x="120" y="108" width="21" height="21" rx="3" fill="#2dd4bf" opacity="0.29"/><rect x="144" y="108" width="21" height="21" rx="3" fill="#2dd4bf" opacity="0.34"/><rect x="168" y="108" width="21" height="21" rx="3" fill="#f59e0b" opacity="0.11"/><rect x="192" y="108" width="21" height="21" rx="3" fill="#2dd4bf" opacity="0.17"/><rect x="216" y="108" width="21" height="21" rx="3" fill="#2dd4bf" opacity="0.22"/><rect x="240" y="108" width="21" height="21" rx="3" fill="#2dd4bf" opacity="0.30"/><rect x="288" y="108" width="21" height="21" rx="3" fill="#2dd4bf" opacity="0.16"/><rect x="312" y="108" width="21" height="21" rx="3" fill="#2dd4bf" opacity="0.14"/><rect x="336" y="108" width="21" height="21" rx="3" fill="#f59e0b" opacity="0.08"/><rect x="360" y="108" width="21" height="21" rx="3" fill="#f59e0b" opacity="0.10"/><rect x="384" y="108" width="21" height="21" rx="3" fill="#2dd4bf" opacity="0.18"/><rect x="408" y="108" width="21" height="21" rx="3" fill="#f59e0b" opacity="0.09"/><rect x="120" y="132" width="21" height="21" rx="3" fill="#2dd4bf" opacity="0.33"/><rect x="144" y="132" width="21" height="21" rx="3" fill="#f59e0b" opacity="0.08"/><rect x="168" y="132" width="21" height="21" rx="3" fill="#2dd4bf" opacity="0.34"/><rect x="192" y="132" width="21" height="21" rx="3" fill="#2dd4bf" opacity="0.12"/><rect x="216" y="132" width="21" height="21" rx="3" fill="#2dd4bf" opacity="0.30"/><rect x="240" y="132" width="21" height="21" rx="3" fill="#f59e0b" opacity="0.06"/><rect x="264" y="132" width="21" height="21" rx="3" fill="#2dd4bf" opacity="0.26"/><rect x="288" y="132" width="21" height="21" rx="3" fill="#2dd4bf" opacity="0.27"/><rect x="312" y="132" width="21" height="21" rx="3" fill="#2dd4bf" opacity="0.16"/><rect x="336" y="132" width="21" height="21" rx="3" fill="#2dd4bf" opacity="0.28"/><rect x="360" y="132" width="21" height="21" rx="3" fill="#2dd4bf" opacity="0.21"/><rect x="384" y="132" width="21" height="21" rx="3" fill="#2dd4bf" opacity="0.23"/><rect x="432" y="132" width="21" height="21" rx="3" fill="#f59e0b" opacity="0.10"/><rect x="120" y="156" width="21" height="21" rx="3" fill="#2dd4bf" opacity="0.28"/><rect x="144" y="156" width="21" height="21" rx="3" fill="#2dd4bf" opacity="0.17"/><rect x="168" y="156" width="21" height="21" rx="3" fill="#f59e0b" opacity="0.06"/><rect x="192" y="156" width="21" height="21" rx="3" fill="#2dd4bf" opacity="0.21"/><rect x="216" y="156" width="21" height="21" rx="3" fill="#2dd4bf" opacity="0.32"/><rect x="240" y="156" width="21" height="21" rx="3" fill="#2dd4bf" opacity="0.33"/><rect x="288" y="156" width="21" height="21" rx="3" fill="#f59e0b" opacity="0.09"/><rect x="312" y="156" width="21" height="21" rx="3" fill="#f59e0b" opacity="0.10"/><rect x="336" y="156" width="21" height="21" rx="3" fill="#2dd4bf" opacity="0.26"/><rect x="360" y="156" width="21" height="21" rx="3" fill="#2dd4bf" opacity="0.19"/><rect x="384" y="156" width="21" height="21" rx="3" fill="#2dd4bf" opacity="0.34"/><rect x="408" y="156" width="21" height="21" rx="3" fill="#2dd4bf" opacity="0.14"/><rect x="120" y="180" width="21" height="21" rx="3" fill="#2dd4bf" opacity="0.18"/><rect x="144" y="180" width="21" height="21" rx="3" fill="#2dd4bf" opacity="0.18"/><rect x="168" y="180" width="21" height="21" rx="3" fill="#2dd4bf" opacity="0.19"/><rect x="192" y="180" width="21" height="21" rx="3" fill="#2dd4bf" opacity="0.14"/><rect x="216" y="180" width="21" height="21" rx="3" fill="#2dd4bf" opacity="0.23"/><rect x="240" y="180" width="21" height="21" rx="3" fill="#2dd4bf" opacity="0.24"/><rect x="264" y="180" width="21" height="21" rx="3" fill="#2dd4bf" opacity="0.20"/><rect x="288" y="180" width="21" height="21" rx="3" fill="#2dd4bf" opacity="0.14"/><rect x="336" y="180" width="21" height="21" rx="3" fill="#f59e0b" opacity="0.11"/><rect x="360" y="180" width="21" height="21" rx="3" fill="#2dd4bf" opacity="0.31"/><rect x="384" y="180" width="21" height="21" rx="3" fill="#2dd4bf" opacity="0.15"/><rect x="408" y="180" width="21" height="21" rx="3" fill="#2dd4bf" opacity="0.16"/><rect x="120" y="204" width="21" height="21" rx="3" fill="#2dd4bf" opacity="0.13"/><rect x="144" y="204" width="21" height="21" rx="3" fill="#f59e0b" opacity="0.06"/><rect x="168" y="204" width="21" height="21" rx="3" fill="#2dd4bf" opacity="0.20"/><rect x="192" y="204" width="21" height="21" rx="3" fill="#2dd4bf" opacity="0.17"/><rect x="216" y="204" width="21" height="21" rx="3" fill="#2dd4bf" opacity="0.21"/><rect x="240" y="204" width="21" height="21" rx="3" fill="#2dd4bf" opacity="0.28"/><rect x="264" y="204" width="21" height="21" rx="3" fill="#2dd4bf" opacity="0.22"/><rect x="288" y="204" width="21" height="21" rx="3" fill="#2dd4bf" opacity="0.31"/><rect x="312" y="204" width="21" height="21" rx="3" fill="#f59e0b" opacity="0.07"/><rect x="336" y="204" width="21" height="21" rx="3" fill="#f59e0b" opacity="0.09"/><rect x="360" y="204" width="21" height="21" rx="3" fill="#2dd4bf" opacity="0.17"/><rect x="384" y="204" width="21" height="21" rx="3" fill="#2dd4bf" opacity="0.25"/><rect x="408" y="204" width="21" height="21" rx="3" fill="#2dd4bf" opacity="0.15"/><rect x="432" y="204" width="21" height="21" rx="3" fill="#2dd4bf" opacity="0.16"/><rect x="120" y="228" width="21" height="21" rx="3" fill="#2dd4bf" opacity="0.17"/><rect x="168" y="228" width="21" height="21" rx="3" fill="#2dd4bf" opacity="0.30"/><rect x="192" y="228" width="21" height="21" rx="3" fill="#2dd4bf" opacity="0.24"/><rect x="216" y="228" width="21" height="21" rx="3" fill="#2dd4bf" opacity="0.17"/><rect x="240" y="228" width="21" height="21" rx="3" fill="#f59e0b" opacity="0.11"/><rect x="264" y="228" width="21" height="21" rx="3" fill="#2dd4bf" opacity="0.18"/><rect x="288" y="228" width="21" height="21" rx="3" fill="#2dd4bf" opacity="0.21"/><rect x="312" y="228" width="21" height="21" rx="3" fill="#2dd4bf" opacity="0.29"/><rect x="336" y="228" width="21" height="21" rx="3" fill="#2dd4bf" opacity="0.16"/><rect x="360" y="228" width="21" height="21" rx="3" fill="#2dd4bf" opacity="0.15"/><rect x="384" y="228" width="21" height="21" rx="3" fill="#2dd4bf" opacity="0.26"/><rect x="408" y="228" width="21" height="21" rx="3" fill="#f59e0b" opacity="0.10"/><rect x="120" y="252" width="21" height="21" rx="3" fill="#2dd4bf" opacity="0.13"/><rect x="144" y="252" width="21" height="21" rx="3" fill="#2dd4bf" opacity="0.22"/><rect x="168" y="252" width="21" height="21" rx="3" fill="#2dd4bf" opacity="0.35"/><rect x="192" y="252" width="21" height="21" rx="3" fill="#f59e0b" opacity="0.07"/><rect x="216" y="252" width="21" height="21" rx="3" fill="#2dd4bf" opacity="0.15"/><rect x="264" y="252" width="21" height="21" rx="3" fill="#2dd4bf" opacity="0.27"/><rect x="288" y="252" width="21" height="21" rx="3" fill="#2dd4bf" opacity="0.17"/><rect x="312" y="252" width="21" height="21" rx="3" fill="#2dd4bf" opacity="0.30"/><rect x="336" y="252" width="21" height="21" rx="3" fill="#f59e0b" opacity="0.09"/><rect x="360" y="252" width="21" height="21" rx="3" fill="#f59e0b" opacity="0.11"/><rect x="384" y="252" width="21" height="21" rx="3" fill="#2dd4bf" opacity="0.16"/><rect x="408" y="252" width="21" height="21" rx="3" fill="#f59e0b" opacity="0.09"/><rect x="432" y="252" width="21" height="21" rx="3" fill="#2dd4bf" opacity="0.30"/><rect x="120" y="276" width="21" height="21" rx="3" fill="#2dd4bf" opacity="0.21"/><rect x="144" y="276" width="21" height="21" rx="3" fill="#2dd4bf" opacity="0.32"/><rect x="168" y="276" width="21" height="21" rx="3" fill="#2dd4bf" opacity="0.27"/><rect x="216" y="276" width="21" height="21" rx="3" fill="#2dd4bf" opacity="0.17"/><rect x="240" y="276" width="21" height="21" rx="3" fill="#2dd4bf" opacity="0.23"/><rect x="312" y="276" width="21" height="21" rx="3" fill="#f59e0b" opacity="0.08"/><rect x="336" y="276" width="21" height="21" rx="3" fill="#2dd4bf" opacity="0.21"/><rect x="384" y="276" width="21" height="21" rx="3" fill="#2dd4bf" opacity="0.24"/><rect x="408" y="276" width="21" height="21" rx="3" fill="#2dd4bf" opacity="0.18"/><rect x="432" y="276" width="21" height="21" rx="3" fill="#2dd4bf" opacity="0.21"/><rect x="120" y="300" width="21" height="21" rx="3" fill="#2dd4bf" opacity="0.22"/><rect x="144" y="300" width="21" height="21" rx="3" fill="#2dd4bf" opacity="0.34"/><rect x="216" y="300" width="21" height="21" rx="3" fill="#2dd4bf" opacity="0.31"/><rect x="240" y="300" width="21" height="21" rx="3" fill="#2dd4bf" opacity="0.34"/><rect x="264" y="300" width="21" height="21" rx="3" fill="#2dd4bf" opacity="0.23"/><rect x="312" y="300" width="21" height="21" rx="3" fill="#2dd4bf" opacity="0.22"/><rect x="360" y="300" width="21" height="21" rx="3" fill="#f59e0b" opacity="0.10"/><rect x="384" y="300" width="21" height="21" rx="3" fill="#2dd4bf" opacity="0.28"/><rect x="408" y="300" width="21" height="21" rx="3" fill="#2dd4bf" opacity="0.15"/><rect x="120" y="324" width="21" height="21" rx="3" fill="#2dd4bf" opacity="0.22"/><rect x="144" y="324" width="21" height="21" rx="3" fill="#f59e0b" opacity="0.06"/><rect x="168" y="324" width="21" height="21" rx="3" fill="#f59e0b" opacity="0.07"/><rect x="192" y="324" width="21" height="21" rx="3" fill="#2dd4bf" opacity="0.16"/><rect x="264" y="324" width="21" height="21" rx="3" fill="#2dd4bf" opacity="0.13"/><rect x="288" y="324" width="21" height="21" rx="3" fill="#f59e0b" opacity="0.10"/><rect x="312" y="324" width="21" height="21" rx="3" fill="#2dd4bf" opacity="0.20"/><rect x="336" y="324" width="21" height="21" rx="3" fill="#2dd4bf" opacity="0.14"/><rect x="360" y="324" width="21" height="21" rx="3" fill="#2dd4bf" opacity="0.23"/><rect x="384" y="324" width="21" height="21" rx="3" fill="#2dd4bf" opacity="0.23"/><rect x="408" y="324" width="21" height="21" rx="3" fill="#f59e0b" opacity="0.10"/><rect x="432" y="324" width="21" height="21" rx="3" fill="#2dd4bf" opacity="0.15"/><rect x="120" y="348" width="21" height="21" rx="3" fill="#2dd4bf" opacity="0.30"/><rect x="168" y="348" width="21" height="21" rx="3" fill="#2dd4bf" opacity="0.25"/><rect x="216" y="348" width="21" height="21" rx="3" fill="#f59e0b" opacity="0.11"/><rect x="240" y="348" width="21" height="21" rx="3" fill="#2dd4bf" opacity="0.29"/><rect x="264" y="348" width="21" height="21" rx="3" fill="#2dd4bf" opacity="0.31"/><rect x="288" y="348" width="21" height="21" rx="3" fill="#2dd4bf" opacity="0.15"/><rect x="336" y="348" width="21" height="21" rx="3" fill="#2dd4bf" opacity="0.16"/><rect x="360" y="348" width="21" height="21" rx="3" fill="#2dd4bf" opacity="0.29"/><rect x="384" y="348" width="21" height="21" rx="3" fill="#2dd4bf" opacity="0.30"/><rect x="408" y="348" width="21" height="21" rx="3" fill="#2dd4bf" opacity="0.17"/><rect x="144" y="372" width="21" height="21" rx="3" fill="#2dd4bf" opacity="0.12"/><rect x="168" y="372" width="21" height="21" rx="3" fill="#f59e0b" opacity="0.08"/><rect x="192" y="372" width="21" height="21" rx="3" fill="#2dd4bf" opacity="0.22"/><rect x="216" y="372" width="21" height="21" rx="3" fill="#2dd4bf" opacity="0.34"/><rect x="240" y="372" width="21" height="21" rx="3" fill="#2dd4bf" opacity="0.16"/><rect x="264" y="372" width="21" height="21" rx="3" fill="#2dd4bf" opacity="0.27"/><rect x="288" y="372" width="21" height="21" rx="3" fill="#f59e0b" opacity="0.07"/><rect x="312" y="372" width="21" height="21" rx="3" fill="#2dd4bf" opacity="0.20"/><rect x="360" y="372" width="21" height="21" rx="3" fill="#2dd4bf" opacity="0.30"/><rect x="384" y="372" width="21" height="21" rx="3" fill="#2dd4bf" opacity="0.25"/><rect x="408" y="372" width="21" height="21" rx="3" fill="#2dd4bf" opacity="0.22"/><rect x="432" y="372" width="21" height="21" rx="3" fill="#2dd4bf" opacity="0.20"/><path d="M 560 330 L 560 330.0 L 568 329.8 L 576 329.6 L 584 329.4 L 592 329.2 L 600 328.9 L 608 328.6 L 616 328.3 L 624 327.8 L 632 327.2 L 640 326.5 L 648 325.5 L 656 324.3 L 664 322.7 L 672 320.8 L 680 318.3 L 688 315.2 L 696 311.4 L 704 306.7 L 712 301.1 L 720 294.5 L 728 286.8 L 736 277.8 L 744 267.6 L 752 256.1 L 760 243.5 L 768 229.8 L 776 215.1 L 784 199.8 L 792 184.1 L 800 168.2 L 808 152.7 L 816 137.8 L 824 124.1 L 832 111.9 L 840 101.5 L 848 93.4 L 856 87.8 L 864 84.9 L 872 84.8 L 880 87.4 L 888 92.7 L 896 100.4 L 904 110.4 L 912 122.1 L 920 135.2 L 928 149.1 L 936 163.3 L 944 177.3 L 952 190.5 L 960 202.3 L 968 212.5 L 976 220.6 L 984 226.7 L 992 230.8 L 1000 233.4 L 1008 235.0 L 1016 236.4 L 1024 238.3 L 1032 241.2 L 1040 245.5 L 1048 251.4 L 1056 258.7 L 1064 267.0 L 1072 275.8 L 1080 284.4 L 1088 292.3 L 1096 299.3 L 1104 305.1 L 1112 309.6 L 1120 312.9" fill="none" stroke="#2dd4bf" stroke-width="3" opacity="0.9"/><line x1="560" y1="330" x2="1140" y2="330" stroke="#8a938f" stroke-width="1" opacity="0.5"/><circle cx="868" cy="66" r="7" fill="#f59e0b"/><text x="884" y="72" font-family="Georgia" font-size="22" fill="#e7e5e4" opacity="0.85">−285/2</text>
</svg>