<svg xmlns="http://www.w3.org/2000/svg" viewBox="0 0 1200 400" role="img" aria-hidden="true">
<defs>
<linearGradient id="bg" x1="0" y1="0" x2="1" y2="1">
<stop offset="0" stop-color="#151a1e"/><stop offset="1" stop-color="#1e2a2e"/>
</linearGradient>
<radialGradient id="glow" cx="0.75" cy="0.3" r="0.9">
<stop offset="0" stop-color="#2dd4bf" stop-opacity="0.25"/><stop offset="1" stop-color="#2dd4bf" stop-opacity="0"/>
</radialGradient>
</defs>
<rect width="1200" height="400" fill="url(#bg)"/>
<rect width="1200" height="400" fill="url(#glow)"/>
<rect x="62" y="58" width="12" height="15" rx="3" fill="#f59e0b" opacity="0.78"/><rect x="79" y="58" width="12" height="15" rx="3" fill="#f59e0b" opacity="0.78"/><rect x="96" y="58" width="12" height="15" rx="3" fill="#f59e0b" opacity="0.78"/><rect x="113" y="58" width="12" height="15" rx="3" fill="#f59e0b" opacity="0.78"/><rect x="130" y="58" width="12" height="15" rx="3" fill="#f59e0b" opacity="0.78"/><rect x="147" y="58" width="12" height="15" rx="3" fill="#f59e0b" opacity="0.78"/><rect x="164" y="58" width="12" height="15" rx="3" fill="#f59e0b" opacity="0.78"/><rect x="181" y="58" width="12" height="15" rx="3" fill="#f59e0b" opacity="0.78"/><rect x="198" y="58" width="12" height="15" rx="3" fill="#f59e0b" opacity="0.78"/><rect x="215" y="58" width="12" height="15" rx="3" fill="#f59e0b" opacity="0.78"/><rect x="232" y="58" width="12" height="15" rx="3" fill="#f59e0b" opacity="0.78"/><rect x="249" y="58" width="12" height="15" rx="3" fill="#f59e0b" opacity="0.78"/><rect x="266" y="58" width="12" height="15" rx="3" fill="#f59e0b" opacity="0.78"/><rect x="283" y="58" width="12" height="15" rx="3" fill="#f59e0b" opacity="0.78"/><rect x="300" y="58" width="12" height="15" rx="3" fill="#f59e0b" opacity="0.78"/><rect x="317" y="58" width="12" height="15" rx="3" fill="#f59e0b" opacity="0.78"/><rect x="334" y="58" width="12" height="15" rx="3" fill="#f59e0b" opacity="0.78"/><rect x="351" y="58" width="12" height="15" rx="3" fill="#f59e0b" opacity="0.78"/><rect x="368" y="58" width="12" height="15" rx="3" fill="#f59e0b" opacity="0.78"/><rect x="385" y="58" width="12" height="15" rx="3" fill="#f59e0b" opacity="0.78"/><rect x="402" y="58" width="12" height="15" rx="3" fill="#f59e0b" opacity="0.78"/><rect x="419" y="58" width="12" height="15" rx="3" fill="#f59e0b" opacity="0.78"/><rect x="436" y="58" width="12" height="15" rx="3" fill="#f59e0b" opacity="0.78"/><rect x="453" y="58" width="12" height="15" rx="3" fill="#f59e0b" opacity="0.78"/><rect x="470" y="58" width="12" height="15" rx="3" fill="#f59e0b" opacity="0.78"/><rect x="487" y="58" width="12" height="15" rx="3" fill="#f59e0b" opacity="0.78"/><rect x="504" y="58" width="12" height="15" rx="3" fill="#f59e0b" opacity="0.78"/><rect x="521" y="58" width="12" height="15" rx="3" fill="#f59e0b" opacity="0.78"/><rect x="538" y="58" width="12" height="15" rx="3" fill="#f59e0b" opacity="0.78"/><rect x="555" y="58" width="12" height="15" rx="3" fill="#f59e0b" opacity="0.78"/><rect x="62" y="82" width="12" height="15" rx="3" fill="#f59e0b" opacity="0.78"/><rect x="79" y="82" width="12" height="15" rx="3" fill="#f59e0b" opacity="0.78"/><rect x="96" y="82" width="12" height="15" rx="3" fill="#f59e0b" opacity="0.78"/><rect x="113" y="82" width="12" height="15" rx="3" fill="#f59e0b" opacity="0.78"/><rect x="130" y="82" width="12" height="15" rx="3" fill="#f59e0b" opacity="0.78"/><rect x="147" y="82" width="12" height="15" rx="3" fill="#f59e0b" opacity="0.78"/><rect x="164" y="82" width="12" height="15" rx="3" fill="#f59e0b" opacity="0.78"/><rect x="181" y="82" width="12" height="15" rx="3" fill="#f59e0b" opacity="0.78"/><rect x="198" y="82" width="12" height="15" rx="3" fill="#f59e0b" opacity="0.78"/><rect x="215" y="82" width="12" height="15" rx="3" fill="#f59e0b" opacity="0.78"/><rect x="232" y="82" width="12" height="15" rx="3" fill="#f59e0b" opacity="0.78"/><rect x="249" y="82" width="12" height="15" rx="3" fill="#f59e0b" opacity="0.78"/><rect x="266" y="82" width="12" height="15" rx="3" fill="#f59e0b" opacity="0.78"/><rect x="283" y="82" width="12" height="15" rx="3" fill="#f59e0b" opacity="0.78"/><rect x="300" y="82" width="12" height="15" rx="3" fill="#f59e0b" opacity="0.78"/><rect x="317" y="82" width="12" height="15" rx="3" fill="#f59e0b" opacity="0.78"/><rect x="334" y="82" width="12" height="15" rx="3" fill="#f59e0b" opacity="0.78"/><rect x="351" y="82" width="12" height="15" rx="3" fill="#f59e0b" opacity="0.78"/><rect x="368" y="82" width="12" height="15" rx="3" fill="#2dd4bf" opacity="0.80"/><rect x="385" y="82" width="12" height="15" rx="3" fill="#2dd4bf" opacity="0.34"/><rect x="402" y="82" width="12" height="15" rx="3" fill="#2dd4bf" opacity="0.42"/><rect x="419" y="82" width="12" height="15" rx="3" fill="#2dd4bf" opacity="0.49"/><rect x="436" y="82" width="12" height="15" rx="3" fill="#2dd4bf" opacity="0.57"/><rect x="453" y="82" width="12" height="15" rx="3" fill="#2dd4bf" opacity="0.65"/><rect x="470" y="82" width="12" height="15" rx="3" fill="#2dd4bf" opacity="0.72"/><rect x="487" y="82" width="12" height="15" rx="3" fill="#2dd4bf" opacity="0.80"/><rect x="504" y="82" width="12" height="15" rx="3" fill="#2dd4bf" opacity="0.34"/><rect x="521" y="82" width="12" height="15" rx="3" fill="#2dd4bf" opacity="0.42"/><rect x="538" y="82" width="12" height="15" rx="3" fill="#2dd4bf" opacity="0.49"/><rect x="555" y="82" width="12" height="15" rx="3" fill="#2dd4bf" opacity="0.57"/><rect x="62" y="106" width="12" height="15" rx="3" fill="#2dd4bf" opacity="0.65"/><rect x="79" y="106" width="12" height="15" rx="3" fill="#2dd4bf" opacity="0.72"/><rect x="96" y="106" width="12" height="15" rx="3" fill="#2dd4bf" opacity="0.80"/><rect x="113" y="106" width="12" height="15" rx="3" fill="#2dd4bf" opacity="0.34"/><rect x="130" y="106" width="12" height="15" rx="3" fill="#2dd4bf" opacity="0.42"/><rect x="147" y="106" width="12" height="15" rx="3" fill="#2dd4bf" opacity="0.49"/><rect x="164" y="106" width="12" height="15" rx="3" fill="#2dd4bf" opacity="0.57"/><rect x="181" y="106" width="12" height="15" rx="3" fill="#2dd4bf" opacity="0.65"/><rect x="198" y="106" width="12" height="15" rx="3" fill="#2dd4bf" opacity="0.72"/><rect x="215" y="106" width="12" height="15" rx="3" fill="#2dd4bf" opacity="0.80"/><rect x="232" y="106" width="12" height="15" rx="3" fill="#2dd4bf" opacity="0.34"/><rect x="249" y="106" width="12" height="15" rx="3" fill="#2dd4bf" opacity="0.42"/><rect x="266" y="106" width="12" height="15" rx="3" fill="#2dd4bf" opacity="0.49"/><rect x="283" y="106" width="12" height="15" rx="3" fill="#2dd4bf" opacity="0.57"/><rect x="300" y="106" width="12" height="15" rx="3" fill="#2dd4bf" opacity="0.65"/><rect x="317" y="106" width="12" height="15" rx="3" fill="#2dd4bf" opacity="0.72"/><rect x="334" y="106" width="12" height="15" rx="3" fill="#2dd4bf" opacity="0.80"/><rect x="351" y="106" width="12" height="15" rx="3" fill="#2dd4bf" opacity="0.34"/><rect x="368" y="106" width="12" height="15" rx="3" fill="#2dd4bf" opacity="0.42"/><rect x="385" y="106" width="12" height="15" rx="3" fill="#2dd4bf" opacity="0.49"/><rect x="402" y="106" width="12" height="15" rx="3" fill="#2dd4bf" opacity="0.57"/><rect x="419" y="106" width="12" height="15" rx="3" fill="#2dd4bf" opacity="0.65"/><rect x="436" y="106" width="12" height="15" rx="3" fill="#2dd4bf" opacity="0.72"/><rect x="453" y="106" width="12" height="15" rx="3" fill="#2dd4bf" opacity="0.80"/><rect x="470" y="106" width="12" height="15" rx="3" fill="#2dd4bf" opacity="0.34"/><rect x="487" y="106" width="12" height="15" rx="3" fill="#2dd4bf" opacity="0.42"/><rect x="504" y="106" width="12" height="15" rx="3" fill="#2dd4bf" opacity="0.49"/><rect x="521" y="106" width="12" height="15" rx="3" fill="#2dd4bf" opacity="0.57"/><rect x="538" y="106" width="12" height="15" rx="3" fill="#2dd4bf" opacity="0.65"/><rect x="555" y="106" width="12" height="15" rx="3" fill="#2dd4bf" opacity="0.72"/><rect x="62" y="130" width="12" height="15" rx="3" fill="#2dd4bf" opacity="0.80"/><rect x="79" y="130" width="12" height="15" rx="3" fill="#2dd4bf" opacity="0.34"/><rect x="96" y="130" width="12" height="15" rx="3" fill="#2dd4bf" opacity="0.42"/><rect x="113" y="130" width="12" height="15" rx="3" fill="#2dd4bf" opacity="0.49"/><rect x="130" y="130" width="12" height="15" rx="3" fill="#2dd4bf" opacity="0.57"/><rect x="147" y="130" width="12" height="15" rx="3" fill="#2dd4bf" opacity="0.65"/><rect x="164" y="130" width="12" height="15" rx="3" fill="#2dd4bf" opacity="0.72"/><rect x="181" y="130" width="12" height="15" rx="3" fill="#2dd4bf" opacity="0.80"/><rect x="198" y="130" width="12" height="15" rx="3" fill="#2dd4bf" opacity="0.34"/><rect x="215" y="130" width="12" height="15" rx="3" fill="#2dd4bf" opacity="0.42"/><rect x="232" y="130" width="12" height="15" rx="3" fill="#2dd4bf" opacity="0.49"/><rect x="249" y="130" width="12" height="15" rx="3" fill="#2dd4bf" opacity="0.57"/><rect x="266" y="130" width="12" height="15" rx="3" fill="#2dd4bf" opacity="0.65"/><rect x="283" y="130" width="12" height="15" rx="3" fill="#2dd4bf" opacity="0.72"/><rect x="300" y="130" width="12" height="15" rx="3" fill="#2dd4bf" opacity="0.80"/><rect x="317" y="130" width="12" height="15" rx="3" fill="#2dd4bf" opacity="0.34"/><rect x="334" y="130" width="12" height="15" rx="3" fill="#2dd4bf" opacity="0.42"/><rect x="351" y="130" width="12" height="15" rx="3" fill="#2dd4bf" opacity="0.49"/><rect x="368" y="130" width="12" height="15" rx="3" fill="#2dd4bf" opacity="0.57"/><rect x="385" y="130" width="12" height="15" rx="3" fill="#2dd4bf" opacity="0.65"/><rect x="402" y="130" width="12" height="15" rx="3" fill="#2dd4bf" opacity="0.72"/><rect x="419" y="130" width="12" height="15" rx="3" fill="#2dd4bf" opacity="0.80"/><rect x="436" y="130" width="12" height="15" rx="3" fill="#2dd4bf" opacity="0.34"/><rect x="453" y="130" width="12" height="15" rx="3" fill="#2dd4bf" opacity="0.42"/><rect x="470" y="130" width="12" height="15" rx="3" fill="#2dd4bf" opacity="0.49"/><rect x="487" y="130" width="12" height="15" rx="3" fill="#2dd4bf" opacity="0.57"/><rect x="504" y="130" width="12" height="15" rx="3" fill="#2dd4bf" opacity="0.65"/><rect x="521" y="130" width="12" height="15" rx="3" fill="#2dd4bf" opacity="0.72"/><rect x="538" y="130" width="12" height="15" rx="3" fill="#2dd4bf" opacity="0.80"/><rect x="555" y="130" width="12" height="15" rx="3" fill="#2dd4bf" opacity="0.34"/><rect x="62" y="154" width="12" height="15" rx="3" fill="#2dd4bf" opacity="0.42"/><rect x="79" y="154" width="12" height="15" rx="3" fill="#2dd4bf" opacity="0.49"/><rect x="96" y="154" width="12" height="15" rx="3" fill="#2dd4bf" opacity="0.57"/><rect x="113" y="154" width="12" height="15" rx="3" fill="#2dd4bf" opacity="0.65"/><rect x="130" y="154" width="12" height="15" rx="3" fill="#2dd4bf" opacity="0.72"/><rect x="147" y="154" width="12" height="15" rx="3" fill="#2dd4bf" opacity="0.80"/><rect x="164" y="154" width="12" height="15" rx="3" fill="#2dd4bf" opacity="0.34"/><rect x="181" y="154" width="12" height="15" rx="3" fill="#2dd4bf" opacity="0.42"/><rect x="198" y="154" width="12" height="15" rx="3" fill="#2dd4bf" opacity="0.49"/><rect x="215" y="154" width="12" height="15" rx="3" fill="#2dd4bf" opacity="0.57"/><rect x="232" y="154" width="12" height="15" rx="3" fill="#2dd4bf" opacity="0.65"/><rect x="249" y="154" width="12" height="15" rx="3" fill="#2dd4bf" opacity="0.72"/><rect x="266" y="154" width="12" height="15" rx="3" fill="#2dd4bf" opacity="0.80"/><rect x="283" y="154" width="12" height="15" rx="3" fill="#2dd4bf" opacity="0.34"/><rect x="300" y="154" width="12" height="15" rx="3" fill="#2dd4bf" opacity="0.42"/><rect x="317" y="154" width="12" height="15" rx="3" fill="#2dd4bf" opacity="0.49"/><rect x="334" y="154" width="12" height="15" rx="3" fill="#2dd4bf" opacity="0.57"/><rect x="351" y="154" width="12" height="15" rx="3" fill="#2dd4bf" opacity="0.65"/><rect x="368" y="154" width="12" height="15" rx="3" fill="#2dd4bf" opacity="0.72"/><rect x="385" y="154" width="12" height="15" rx="3" fill="#2dd4bf" opacity="0.80"/><rect x="402" y="154" width="12" height="15" rx="3" fill="#2dd4bf" opacity="0.34"/><rect x="419" y="154" width="12" height="15" rx="3" fill="#2dd4bf" opacity="0.42"/><rect x="436" y="154" width="12" height="15" rx="3" fill="#2dd4bf" opacity="0.49"/><rect x="453" y="154" width="12" height="15" rx="3" fill="#2dd4bf" opacity="0.57"/><rect x="470" y="154" width="12" height="15" rx="3" fill="#2dd4bf" opacity="0.65"/><rect x="487" y="154" width="12" height="15" rx="3" fill="#2dd4bf" opacity="0.72"/><rect x="504" y="154" width="12" height="15" rx="3" fill="#2dd4bf" opacity="0.80"/><rect x="521" y="154" width="12" height="15" rx="3" fill="#2dd4bf" opacity="0.34"/><rect x="538" y="154" width="12" height="15" rx="3" fill="#2dd4bf" opacity="0.42"/><rect x="555" y="154" width="12" height="15" rx="3" fill="#2dd4bf" opacity="0.49"/><rect x="62" y="178" width="12" height="15" rx="3" fill="#2dd4bf" opacity="0.57"/><rect x="79" y="178" width="12" height="15" rx="3" fill="#2dd4bf" opacity="0.65"/><rect x="96" y="178" width="12" height="15" rx="3" fill="#2dd4bf" opacity="0.72"/><rect x="113" y="178" width="12" height="15" rx="3" fill="#2dd4bf" opacity="0.80"/><rect x="130" y="178" width="12" height="15" rx="3" fill="#2dd4bf" opacity="0.34"/><rect x="147" y="178" width="12" height="15" rx="3" fill="#2dd4bf" opacity="0.42"/><rect x="164" y="178" width="12" height="15" rx="3" fill="#2dd4bf" opacity="0.49"/><rect x="181" y="178" width="12" height="15" rx="3" fill="#2dd4bf" opacity="0.57"/><rect x="198" y="178" width="12" height="15" rx="3" fill="#2dd4bf" opacity="0.65"/><rect x="215" y="178" width="12" height="15" rx="3" fill="#2dd4bf" opacity="0.72"/><rect x="232" y="178" width="12" height="15" rx="3" fill="#2dd4bf" opacity="0.80"/><rect x="249" y="178" width="12" height="15" rx="3" fill="#2dd4bf" opacity="0.34"/><rect x="266" y="178" width="12" height="15" rx="3" fill="#2dd4bf" opacity="0.42"/><rect x="283" y="178" width="12" height="15" rx="3" fill="#2dd4bf" opacity="0.49"/><rect x="300" y="178" width="12" height="15" rx="3" fill="#2dd4bf" opacity="0.57"/><rect x="317" y="178" width="12" height="15" rx="3" fill="#2dd4bf" opacity="0.65"/><rect x="334" y="178" width="12" height="15" rx="3" fill="#2dd4bf" opacity="0.72"/><rect x="351" y="178" width="12" height="15" rx="3" fill="#2dd4bf" opacity="0.80"/><rect x="368" y="178" width="12" height="15" rx="3" fill="#2dd4bf" opacity="0.34"/><rect x="385" y="178" width="12" height="15" rx="3" fill="#2dd4bf" opacity="0.42"/><rect x="402" y="178" width="12" height="15" rx="3" fill="#2dd4bf" opacity="0.49"/><rect x="419" y="178" width="12" height="15" rx="3" fill="#2dd4bf" opacity="0.57"/><rect x="436" y="178" width="12" height="15" rx="3" fill="#2dd4bf" opacity="0.65"/><rect x="453" y="178" width="12" height="15" rx="3" fill="#2dd4bf" opacity="0.72"/><rect x="470" y="178" width="12" height="15" rx="3" fill="#2dd4bf" opacity="0.80"/><rect x="487" y="178" width="12" height="15" rx="3" fill="#2dd4bf" opacity="0.34"/><rect x="504" y="178" width="12" height="15" rx="3" fill="#2dd4bf" opacity="0.42"/><rect x="521" y="178" width="12" height="15" rx="3" fill="#2dd4bf" opacity="0.49"/><rect x="538" y="178" width="12" height="15" rx="3" fill="#2dd4bf" opacity="0.57"/><rect x="555" y="178" width="12" height="15" rx="3" fill="#2dd4bf" opacity="0.65"/><rect x="62" y="202" width="12" height="15" rx="3" fill="#2dd4bf" opacity="0.72"/><rect x="79" y="202" width="12" height="15" rx="3" fill="#2dd4bf" opacity="0.80"/><rect x="96" y="202" width="12" height="15" rx="3" fill="#2dd4bf" opacity="0.34"/><rect x="113" y="202" width="12" height="15" rx="3" fill="#2dd4bf" opacity="0.42"/><rect x="130" y="202" width="12" height="15" rx="3" fill="#2dd4bf" opacity="0.49"/><rect x="147" y="202" width="12" height="15" rx="3" fill="#2dd4bf" opacity="0.57"/><rect x="164" y="202" width="12" height="15" rx="3" fill="#2dd4bf" opacity="0.65"/><rect x="181" y="202" width="12" height="15" rx="3" fill="#2dd4bf" opacity="0.72"/><rect x="198" y="202" width="12" height="15" rx="3" fill="#2dd4bf" opacity="0.80"/><rect x="215" y="202" width="12" height="15" rx="3" fill="#2dd4bf" opacity="0.34"/><rect x="232" y="202" width="12" height="15" rx="3" fill="#2dd4bf" opacity="0.42"/><rect x="249" y="202" width="12" height="15" rx="3" fill="#2dd4bf" opacity="0.49"/><rect x="266" y="202" width="12" height="15" rx="3" fill="#2dd4bf" opacity="0.57"/><rect x="283" y="202" width="12" height="15" rx="3" fill="#2dd4bf" opacity="0.65"/><rect x="300" y="202" width="12" height="15" rx="3" fill="#2dd4bf" opacity="0.72"/><rect x="317" y="202" width="12" height="15" rx="3" fill="#2dd4bf" opacity="0.80"/><rect x="334" y="202" width="12" height="15" rx="3" fill="#2dd4bf" opacity="0.34"/><rect x="351" y="202" width="12" height="15" rx="3" fill="#2dd4bf" opacity="0.42"/><rect x="368" y="202" width="12" height="15" rx="3" fill="#2dd4bf" opacity="0.49"/><rect x="385" y="202" width="12" height="15" rx="3" fill="#2dd4bf" opacity="0.57"/><rect x="402" y="202" width="12" height="15" rx="3" fill="#2dd4bf" opacity="0.65"/><rect x="419" y="202" width="12" height="15" rx="3" fill="#2dd4bf" opacity="0.72"/><rect x="436" y="202" width="12" height="15" rx="3" fill="#2dd4bf" opacity="0.80"/><rect x="453" y="202" width="12" height="15" rx="3" fill="#2dd4bf" opacity="0.34"/><rect x="470" y="202" width="12" height="15" rx="3" fill="#2dd4bf" opacity="0.42"/><rect x="487" y="202" width="12" height="15" rx="3" fill="#2dd4bf" opacity="0.49"/><rect x="504" y="202" width="12" height="15" rx="3" fill="#2dd4bf" opacity="0.57"/><rect x="521" y="202" width="12" height="15" rx="3" fill="#2dd4bf" opacity="0.65"/><rect x="538" y="202" width="12" height="15" rx="3" fill="#2dd4bf" opacity="0.72"/><rect x="555" y="202" width="12" height="15" rx="3" fill="#2dd4bf" opacity="0.80"/><rect x="62" y="226" width="12" height="15" rx="3" fill="#2dd4bf" opacity="0.34"/><rect x="79" y="226" width="12" height="15" rx="3" fill="#2dd4bf" opacity="0.42"/><rect x="96" y="226" width="12" height="15" rx="3" fill="#2dd4bf" opacity="0.49"/><rect x="113" y="226" width="12" height="15" rx="3" fill="#2dd4bf" opacity="0.57"/><rect x="130" y="226" width="12" height="15" rx="3" fill="#2dd4bf" opacity="0.65"/><rect x="147" y="226" width="12" height="15" rx="3" fill="#2dd4bf" opacity="0.72"/><rect x="164" y="226" width="12" height="15" rx="3" fill="#2dd4bf" opacity="0.80"/><rect x="181" y="226" width="12" height="15" rx="3" fill="#2dd4bf" opacity="0.34"/><rect x="198" y="226" width="12" height="15" rx="3" fill="#2dd4bf" opacity="0.42"/><rect x="215" y="226" width="12" height="15" rx="3" fill="#2dd4bf" opacity="0.49"/><rect x="232" y="226" width="12" height="15" rx="3" fill="#2dd4bf" opacity="0.57"/><rect x="249" y="226" width="12" height="15" rx="3" fill="#2dd4bf" opacity="0.65"/><rect x="266" y="226" width="12" height="15" rx="3" fill="#2dd4bf" opacity="0.72"/><rect x="283" y="226" width="12" height="15" rx="3" fill="#2dd4bf" opacity="0.80"/><rect x="300" y="226" width="12" height="15" rx="3" fill="#2dd4bf" opacity="0.34"/><rect x="317" y="226" width="12" height="15" rx="3" fill="#2dd4bf" opacity="0.42"/><rect x="334" y="226" width="12" height="15" rx="3" fill="#2dd4bf" opacity="0.49"/><rect x="351" y="226" width="12" height="15" rx="3" fill="#2dd4bf" opacity="0.57"/><rect x="368" y="226" width="12" height="15" rx="3" fill="#2dd4bf" opacity="0.65"/><rect x="385" y="226" width="12" height="15" rx="3" fill="#2dd4bf" opacity="0.72"/><rect x="402" y="226" width="12" height="15" rx="3" fill="#2dd4bf" opacity="0.80"/><rect x="419" y="226" width="12" height="15" rx="3" fill="#2dd4bf" opacity="0.34"/><rect x="436" y="226" width="12" height="15" rx="3" fill="#2dd4bf" opacity="0.42"/><rect x="453" y="226" width="12" height="15" rx="3" fill="#2dd4bf" opacity="0.49"/><rect x="470" y="226" width="12" height="15" rx="3" fill="#2dd4bf" opacity="0.57"/><rect x="487" y="226" width="12" height="15" rx="3" fill="#2dd4bf" opacity="0.65"/><rect x="504" y="226" width="12" height="15" rx="3" fill="#2dd4bf" opacity="0.72"/><rect x="521" y="226" width="12" height="15" rx="3" fill="#2dd4bf" opacity="0.80"/><rect x="538" y="226" width="12" height="15" rx="3" fill="#2dd4bf" opacity="0.34"/><rect x="555" y="226" width="12" height="15" rx="3" fill="#2dd4bf" opacity="0.42"/><rect x="62" y="250" width="12" height="15" rx="3" fill="#2dd4bf" opacity="0.49"/><rect x="79" y="250" width="12" height="15" rx="3" fill="#2dd4bf" opacity="0.57"/><rect x="96" y="250" width="12" height="15" rx="3" fill="#2dd4bf" opacity="0.65"/><rect x="113" y="250" width="12" height="15" rx="3" fill="#2dd4bf" opacity="0.72"/><rect x="130" y="250" width="12" height="15" rx="3" fill="#2dd4bf" opacity="0.80"/><rect x="147" y="250" width="12" height="15" rx="3" fill="#2dd4bf" opacity="0.34"/><rect x="164" y="250" width="12" height="15" rx="3" fill="#2dd4bf" opacity="0.42"/><rect x="181" y="250" width="12" height="15" rx="3" fill="#2dd4bf" opacity="0.49"/><rect x="198" y="250" width="12" height="15" rx="3" fill="#2dd4bf" opacity="0.57"/><rect x="215" y="250" width="12" height="15" rx="3" fill="#2dd4bf" opacity="0.65"/><rect x="232" y="250" width="12" height="15" rx="3" fill="#2dd4bf" opacity="0.72"/><rect x="249" y="250" width="12" height="15" rx="3" fill="#2dd4bf" opacity="0.80"/><rect x="266" y="250" width="12" height="15" rx="3" fill="#2dd4bf" opacity="0.34"/><rect x="283" y="250" width="12" height="15" rx="3" fill="#2dd4bf" opacity="0.42"/><rect x="300" y="250" width="12" height="15" rx="3" fill="#2dd4bf" opacity="0.49"/><rect x="317" y="250" width="12" height="15" rx="3" fill="#2dd4bf" opacity="0.57"/><rect x="334" y="250" width="12" height="15" rx="3" fill="#2dd4bf" opacity="0.65"/><rect x="351" y="250" width="12" height="15" rx="3" fill="#2dd4bf" opacity="0.72"/><rect x="368" y="250" width="12" height="15" rx="3" fill="#2dd4bf" opacity="0.80"/><rect x="385" y="250" width="12" height="15" rx="3" fill="#2dd4bf" opacity="0.34"/><rect x="402" y="250" width="12" height="15" rx="3" fill="#2dd4bf" opacity="0.42"/><rect x="419" y="250" width="12" height="15" rx="3" fill="#2dd4bf" opacity="0.49"/><rect x="436" y="250" width="12" height="15" rx="3" fill="#2dd4bf" opacity="0.57"/><rect x="453" y="250" width="12" height="15" rx="3" fill="#2dd4bf" opacity="0.65"/><rect x="470" y="250" width="12" height="15" rx="3" fill="#2dd4bf" opacity="0.72"/><rect x="487" y="250" width="12" height="15" rx="3" fill="#2dd4bf" opacity="0.80"/><rect x="504" y="250" width="12" height="15" rx="3" fill="#2dd4bf" opacity="0.34"/><rect x="521" y="250" width="12" height="15" rx="3" fill="#2dd4bf" opacity="0.42"/><rect x="538" y="250" width="12" height="15" rx="3" fill="#2dd4bf" opacity="0.49"/><rect x="555" y="250" width="12" height="15" rx="3" fill="#2dd4bf" opacity="0.57"/><rect x="62" y="274" width="12" height="15" rx="3" fill="#2dd4bf" opacity="0.65"/><rect x="79" y="274" width="12" height="15" rx="3" fill="#2dd4bf" opacity="0.72"/><rect x="96" y="274" width="12" height="15" rx="3" fill="#2dd4bf" opacity="0.80"/><rect x="113" y="274" width="12" height="15" rx="3" fill="#2dd4bf" opacity="0.34"/><rect x="130" y="274" width="12" height="15" rx="3" fill="#2dd4bf" opacity="0.42"/><rect x="147" y="274" width="12" height="15" rx="3" fill="#2dd4bf" opacity="0.49"/><rect x="164" y="274" width="12" height="15" rx="3" fill="#2dd4bf" opacity="0.57"/><rect x="181" y="274" width="12" height="15" rx="3" fill="#2dd4bf" opacity="0.65"/><rect x="198" y="274" width="12" height="15" rx="3" fill="#2dd4bf" opacity="0.72"/><rect x="215" y="274" width="12" height="15" rx="3" fill="#2dd4bf" opacity="0.80"/><rect x="232" y="274" width="12" height="15" rx="3" fill="#2dd4bf" opacity="0.34"/><rect x="249" y="274" width="12" height="15" rx="3" fill="#2dd4bf" opacity="0.42"/><rect x="266" y="274" width="12" height="15" rx="3" fill="#2dd4bf" opacity="0.49"/><rect x="283" y="274" width="12" height="15" rx="3" fill="#2dd4bf" opacity="0.57"/><rect x="300" y="274" width="12" height="15" rx="3" fill="#2dd4bf" opacity="0.65"/><rect x="317" y="274" width="12" height="15" rx="3" fill="#2dd4bf" opacity="0.72"/><rect x="334" y="274" width="12" height="15" rx="3" fill="#2dd4bf" opacity="0.80"/><rect x="351" y="274" width="12" height="15" rx="3" fill="#2dd4bf" opacity="0.34"/><rect x="368" y="274" width="12" height="15" rx="3" fill="#2dd4bf" opacity="0.42"/><rect x="385" y="274" width="12" height="15" rx="3" fill="#2dd4bf" opacity="0.49"/><rect x="402" y="274" width="12" height="15" rx="3" fill="#2dd4bf" opacity="0.57"/><rect x="419" y="274" width="12" height="15" rx="3" fill="#2dd4bf" opacity="0.65"/><rect x="436" y="274" width="12" height="15" rx="3" fill="#2dd4bf" opacity="0.72"/><rect x="453" y="274" width="12" height="15" rx="3" fill="#2dd4bf" opacity="0.80"/><rect x="470" y="274" width="12" height="15" rx="3" fill="#2dd4bf" opacity="0.34"/><rect x="487" y="274" width="12" height="15" rx="3" fill="#2dd4bf" opacity="0.42"/><rect x="504" y="274" width="12" height="15" rx="3" fill="#2dd4bf" opacity="0.49"/><rect x="521" y="274" width="12" height="15" rx="3" fill="#2dd4bf" opacity="0.57"/><rect x="538" y="274" width="12" height="15" rx="3" fill="#2dd4bf" opacity="0.65"/><text x="310" y="338" text-anchor="middle" font-family="Georgia" font-size="25" fill="#e7e5e4" opacity=".92">299 exact windows</text><circle cx="720" cy="198" r="42" fill="#151a1e" stroke="#2dd4bf" stroke-width="4"/><text x="720" y="207" text-anchor="middle" font-family="Georgia" font-size="29" fill="#2dd4bf">p</text><path d="M 765 198 C 820 198, 830 88, 877 88" fill="none" stroke="#e7e5e4" stroke-width="2" opacity=".56"/><circle cx="905" cy="88" r="25" fill="#151a1e" stroke="#f59e0b" stroke-width="3"/><text x="905" y="95" text-anchor="middle" font-family="Georgia" font-size="20" fill="#f59e0b">x₁</text><path d="M 765 198 C 820 198, 830 198, 934 198" fill="none" stroke="#e7e5e4" stroke-width="2" opacity=".56"/><circle cx="962" cy="198" r="25" fill="#151a1e" stroke="#f59e0b" stroke-width="3"/><text x="962" y="205" text-anchor="middle" font-family="Georgia" font-size="20" fill="#f59e0b">x₂</text><path d="M 765 198 C 820 198, 830 308, 877 308" fill="none" stroke="#e7e5e4" stroke-width="2" opacity=".56"/><circle cx="905" cy="308" r="25" fill="#151a1e" stroke="#f59e0b" stroke-width="3"/><text x="905" y="315" text-anchor="middle" font-family="Georgia" font-size="20" fill="#f59e0b">x₃</text><text x="838" y="36" text-anchor="middle" font-family="ui-monospace,monospace" font-size="15" fill="#e7e5e4" opacity=".76">SAME PRIME · THREE STRATA</text><line x1="1030" y1="72" x2="966" y2="330" stroke="#2dd4bf" stroke-width="3" opacity="0.26"/><line x1="1050" y1="72" x2="986" y2="330" stroke="#f59e0b" stroke-width="3" opacity="0.34"/><line x1="1070" y1="72" x2="1006" y2="330" stroke="#2dd4bf" stroke-width="3" opacity="0.42"/><line x1="1090" y1="72" x2="1026" y2="330" stroke="#f59e0b" stroke-width="3" opacity="0.50"/><line x1="1110" y1="72" x2="1046" y2="330" stroke="#2dd4bf" stroke-width="3" opacity="0.58"/><line x1="1130" y1="72" x2="1066" y2="330" stroke="#f59e0b" stroke-width="3" opacity="0.66"/><line x1="1150" y1="72" x2="1086" y2="330" stroke="#2dd4bf" stroke-width="3" opacity="0.74"/><path d="M 1008 340 H 1160" stroke="#e7e5e4" stroke-width="1.5" stroke-dasharray="7 7" opacity=".48"/><text x="1082" y="374" text-anchor="middle" font-family="Georgia" font-size="20" fill="#e7e5e4" opacity=".84">no fixed prime</text>
</svg>