<svg xmlns="http://www.w3.org/2000/svg" viewBox="0 0 1200 400" role="img" aria-hidden="true">
<defs>
<linearGradient id="bg" x1="0" y1="0" x2="1" y2="1">
<stop offset="0" stop-color="#151a1e"/><stop offset="1" stop-color="#1e2a2e"/>
</linearGradient>
<radialGradient id="glow" cx="0.75" cy="0.3" r="0.9">
<stop offset="0" stop-color="#89c8ad" stop-opacity="0.25"/><stop offset="1" stop-color="#89c8ad" stop-opacity="0"/>
</radialGradient>
</defs>
<rect width="1200" height="400" fill="url(#bg)"/>
<rect width="1200" height="400" fill="url(#glow)"/>
<path d="M65 195 H540" stroke="#cbd5d1" stroke-width="2"/><circle cx="90" cy="195" r="12" fill="#89c8ad"/><path d="M90 170 V105" stroke="#89c8ad" stroke-width="3"/><circle cx="150" cy="195" r="12" fill="#dab583"/><path d="M150 170 V260" stroke="#dab583" stroke-width="3"/><circle cx="210" cy="195" r="12" fill="#89c8ad"/><path d="M210 170 V105" stroke="#89c8ad" stroke-width="3"/><circle cx="270" cy="195" r="12" fill="#dab583"/><path d="M270 170 V260" stroke="#dab583" stroke-width="3"/><circle cx="330" cy="195" r="12" fill="#89c8ad"/><path d="M330 170 V105" stroke="#89c8ad" stroke-width="3"/><circle cx="390" cy="195" r="12" fill="#dab583"/><path d="M390 170 V260" stroke="#dab583" stroke-width="3"/><circle cx="450" cy="195" r="12" fill="#89c8ad"/><path d="M450 170 V105" stroke="#89c8ad" stroke-width="3"/><circle cx="510" cy="195" r="12" fill="#dab583"/><path d="M510 170 V260" stroke="#dab583" stroke-width="3"/><text class="og-hide" x="300" y="335" text-anchor="middle" fill="#cbd5d1" font-family="monospace" font-size="17">strict ordering · schematic</text><text class="og-hide" x="855" y="100" text-anchor="middle" fill="#e7e5e4" font-family="Georgia" font-size="35">Roots that never meet</text><text class="og-hide" x="855" y="180" text-anchor="middle" fill="#89c8ad" font-family="Georgia" font-size="31">Quartic boundary interlacing</text><text class="og-hide" x="855" y="255" text-anchor="middle" fill="#dab583" font-family="monospace" font-size="19">affine count uses external rigidity</text><text class="og-hide" x="855" y="330" text-anchor="middle" fill="#cbd5d1" font-family="monospace" font-size="17">UNREFEREED CANDIDATE</text>
</svg>