<svg xmlns="http://www.w3.org/2000/svg" viewBox="0 0 1200 400" data-banner-palette="plum" role="img" aria-labelledby="art-description">
<desc id="art-description">The regular heptagon and octagon have ten and twelve genuine shape directions after four similarities are removed. The candidate certifies positive Hessian bounds 3/5 and 7/20 at unit circumradius; the conclusion is local, not global.</desc><defs>
<linearGradient id="bg" x1="0" y1="0" x2="1" y2="1">
<stop offset="0" stop-color="#291b35"/><stop offset="1" stop-color="#51375e"/>
</linearGradient>
<radialGradient id="glow" cx="0.75" cy="0.3" r="0.9">
<stop offset="0" stop-color="#65d7ec" stop-opacity="0.06"/><stop offset="1" stop-color="#65d7ec" stop-opacity="0"/>
</radialGradient>
</defs>
<rect width="1200" height="400" fill="url(#bg)"/>
<rect width="1200" height="400" fill="url(#glow)"/>
<g font-family="Arial,sans-serif"><circle cx="235" cy="183" r="117" fill="none" stroke="#65d7ec" stroke-width="1" opacity=".25"/><path d="M235 183L235 79" stroke="#65d7ec" stroke-width="1" opacity=".24"/><path d="M235 183L316.3104741766751 118.15706060669172" stroke="#65d7ec" stroke-width="1" opacity=".24"/><path d="M235 183L336.39250286690964 206.1421771314567" stroke="#65d7ec" stroke-width="1" opacity=".24"/><path d="M235 183L280.12390886822607 276.7007622618516" stroke="#65d7ec" stroke-width="1" opacity=".24"/><path d="M235 183L189.87609113177396 276.7007622618516" stroke="#65d7ec" stroke-width="1" opacity=".24"/><path d="M235 183L133.60749713309036 206.14217713145672" stroke="#65d7ec" stroke-width="1" opacity=".24"/><path d="M235 183L153.68952582332489 118.15706060669173" stroke="#65d7ec" stroke-width="1" opacity=".24"/><polygon points="235,79 316.3104741766751,118.15706060669172 336.39250286690964,206.1421771314567 280.12390886822607,276.7007622618516 189.87609113177396,276.7007622618516 133.60749713309036,206.14217713145672 153.68952582332489,118.15706060669173" fill="#65d7ec" fill-opacity=".08" stroke="#65d7ec" stroke-width="3.5"/><circle cx="235" cy="79" r="5" fill="#65d7ec" stroke="#faf7f2" stroke-width="1"/><circle cx="316.3104741766751" cy="118.15706060669172" r="5" fill="#65d7ec" stroke="#faf7f2" stroke-width="1"/><circle cx="336.39250286690964" cy="206.1421771314567" r="5" fill="#65d7ec" stroke="#faf7f2" stroke-width="1"/><circle cx="280.12390886822607" cy="276.7007622618516" r="5" fill="#65d7ec" stroke="#faf7f2" stroke-width="1"/><circle cx="189.87609113177396" cy="276.7007622618516" r="5" fill="#65d7ec" stroke="#faf7f2" stroke-width="1"/><circle cx="133.60749713309036" cy="206.14217713145672" r="5" fill="#65d7ec" stroke="#faf7f2" stroke-width="1"/><circle cx="153.68952582332489" cy="118.15706060669173" r="5" fill="#65d7ec" stroke="#faf7f2" stroke-width="1"/><text class="og-hide" x="235" y="57" text-anchor="middle" font-size="23" fill="#faf7f2">HEPTAGON</text><text class="og-hide" x="235" y="192" text-anchor="middle" font-size="30" fill="#faf7f2">n = 7</text><text class="og-hide" x="235" y="331" text-anchor="middle" font-size="25" fill="#65d7ec">10 shape directions</text><text class="og-hide" x="235" y="364" text-anchor="middle" font-size="19" fill="#d4d9e2">curvature ≥ 3/5</text><circle cx="655" cy="183" r="117" fill="none" stroke="#f4c275" stroke-width="1" opacity=".25"/><path d="M655 183L655 79" stroke="#f4c275" stroke-width="1" opacity=".24"/><path d="M655 183L728.539105243401 109.46089475659906" stroke="#f4c275" stroke-width="1" opacity=".24"/><path d="M655 183L759 183" stroke="#f4c275" stroke-width="1" opacity=".24"/><path d="M655 183L728.539105243401 256.53910524340097" stroke="#f4c275" stroke-width="1" opacity=".24"/><path d="M655 183L655 287" stroke="#f4c275" stroke-width="1" opacity=".24"/><path d="M655 183L581.460894756599 256.53910524340097" stroke="#f4c275" stroke-width="1" opacity=".24"/><path d="M655 183L551 183" stroke="#f4c275" stroke-width="1" opacity=".24"/><path d="M655 183L581.460894756599 109.46089475659906" stroke="#f4c275" stroke-width="1" opacity=".24"/><polygon points="655,79 728.539105243401,109.46089475659906 759,183 728.539105243401,256.53910524340097 655,287 581.460894756599,256.53910524340097 551,183 581.460894756599,109.46089475659906" fill="#f4c275" fill-opacity=".08" stroke="#f4c275" stroke-width="3.5"/><circle cx="655" cy="79" r="5" fill="#f4c275" stroke="#faf7f2" stroke-width="1"/><circle cx="728.539105243401" cy="109.46089475659906" r="5" fill="#f4c275" stroke="#faf7f2" stroke-width="1"/><circle cx="759" cy="183" r="5" fill="#f4c275" stroke="#faf7f2" stroke-width="1"/><circle cx="728.539105243401" cy="256.53910524340097" r="5" fill="#f4c275" stroke="#faf7f2" stroke-width="1"/><circle cx="655" cy="287" r="5" fill="#f4c275" stroke="#faf7f2" stroke-width="1"/><circle cx="581.460894756599" cy="256.53910524340097" r="5" fill="#f4c275" stroke="#faf7f2" stroke-width="1"/><circle cx="551" cy="183" r="5" fill="#f4c275" stroke="#faf7f2" stroke-width="1"/><circle cx="581.460894756599" cy="109.46089475659906" r="5" fill="#f4c275" stroke="#faf7f2" stroke-width="1"/><text class="og-hide" x="655" y="57" text-anchor="middle" font-size="23" fill="#faf7f2">OCTAGON</text><text class="og-hide" x="655" y="192" text-anchor="middle" font-size="30" fill="#faf7f2">n = 8</text><text class="og-hide" x="655" y="331" text-anchor="middle" font-size="25" fill="#f4c275">12 shape directions</text><text class="og-hide" x="655" y="364" text-anchor="middle" font-size="19" fill="#d4d9e2">curvature ≥ 7/20</text><path d="M865 76V325" stroke="#d4d9e2" opacity=".2"/><text class="og-hide" x="1010" y="110" text-anchor="middle" fill="#faf7f2" font-size="23">EVERY DIRECTION</text><text class="og-hide" x="1010" y="143" text-anchor="middle" fill="#faf7f2" font-size="23">CHECKED</text><path d="M917 215l20 20 42-49" stroke="#65d7ec" stroke-width="5" fill="none"/><text class="og-hide" x="995" y="214" fill="#65d7ec" font-size="21">local minimum</text><text class="og-hide" x="1015" y="273" text-anchor="middle" fill="#d4d9e2" font-size="18">4 similarities removed</text><text class="og-hide" x="1015" y="303" text-anchor="middle" fill="#d4d9e2" font-size="18">unit circumradius</text><text class="og-hide" x="1015" y="353" text-anchor="middle" fill="#f4c275" font-size="18">global optimum not proved</text></g>
</svg>