<svg xmlns="http://www.w3.org/2000/svg" viewBox="0 0 1200 400" role="img" aria-hidden="true">
<defs>
<linearGradient id="bg" x1="0" y1="0" x2="1" y2="1">
<stop offset="0" stop-color="#151a1e"/><stop offset="1" stop-color="#1e2a2e"/>
</linearGradient>
<radialGradient id="glow" cx="0.75" cy="0.3" r="0.9">
<stop offset="0" stop-color="#f59e0b" stop-opacity="0.25"/><stop offset="1" stop-color="#f59e0b" stop-opacity="0"/>
</radialGradient>
</defs>
<rect width="1200" height="400" fill="url(#bg)"/>
<rect width="1200" height="400" fill="url(#glow)"/>
<line x1="90" y1="300" x2="520" y2="300" stroke="#8a938f" stroke-width="1" opacity=".5"/><line x1="90" y1="80" x2="90" y2="300" stroke="#8a938f" stroke-width="1" opacity=".5"/><path d="M 100.0 92.0 L 110.0 130.6 L 120.0 159.9 L 130.0 181.6 L 140.0 197.1 L 150.0 207.7 L 160.0 214.3 L 170.0 217.9 L 180.0 219.1 L 190.0 218.5 L 200.0 216.5 L 210.0 213.5 L 220.0 209.8 L 230.0 205.7 L 240.0 201.4 L 250.0 197.0 L 260.0 192.5 L 270.0 188.2 L 280.0 184.1 L 290.0 180.2 L 300.0 176.6 L 310.0 173.2 L 320.0 170.1 L 330.0 167.4 L 340.0 164.9 L 350.0 162.7 L 360.0 160.7 L 370.0 159.1 L 380.0 157.6 L 390.0 156.4 L 400.0 155.4 L 410.0 154.7 L 420.0 154.0 L 430.0 153.6 L 440.0 153.3 L 450.0 153.2 L 460.0 153.1 L 470.0 153.2 L 480.0 153.3 L 490.0 153.6 L 500.0 153.9 L 510.0 154.3" fill="none" stroke="#f59e0b" stroke-width="4"/><path d="M 100.0 268.0 L 110.0 229.4 L 120.0 200.1 L 130.0 178.4 L 140.0 162.9 L 150.0 152.3 L 160.0 145.7 L 170.0 142.1 L 180.0 140.9 L 190.0 141.5 L 200.0 143.5 L 210.0 146.5 L 220.0 150.2 L 230.0 154.3 L 240.0 158.6 L 250.0 163.0 L 260.0 167.5 L 270.0 171.8 L 280.0 175.9 L 290.0 179.8 L 300.0 183.4 L 310.0 186.8 L 320.0 189.9 L 330.0 192.6 L 340.0 195.1 L 350.0 197.3 L 360.0 199.3 L 370.0 200.9 L 380.0 202.4 L 390.0 203.6 L 400.0 204.6 L 410.0 205.3 L 420.0 206.0 L 430.0 206.4 L 440.0 206.7 L 450.0 206.8 L 460.0 206.9 L 470.0 206.8 L 480.0 206.7 L 490.0 206.4 L 500.0 206.1 L 510.0 205.7" fill="none" stroke="#38bdf8" stroke-width="4"/><text x="100" y="66" font-family="ui-monospace,monospace" font-size="16" fill="#f59e0b">h₊(τ)</text><text x="435" y="66" font-family="ui-monospace,monospace" font-size="16" fill="#38bdf8">h₋(τ)</text><text x="100" y="340" font-family="ui-monospace,monospace" font-size="15" fill="#d6dcdd" opacity=".75">distinct positive histories</text><text x="560" y="196" font-family="ui-monospace,monospace" font-size="24" fill="#e7e5e4" opacity=".85">→</text><rect x="610" y="158" width="15" height="142" fill="#e7e5e4" opacity=".8"/><rect x="634" y="213.79216320795166" width="15" height="86.20783679204834" fill="#e7e5e4" opacity=".8"/><rect x="658" y="235.61850740388812" width="15" height="64.38149259611188" fill="#e7e5e4" opacity=".8"/><rect x="682" y="247.66344278616592" width="15" height="52.33655721383409" fill="#e7e5e4" opacity=".8"/><rect x="706" y="255.43130259759067" width="15" height="44.568697402409335" fill="#e7e5e4" opacity=".8"/><rect x="730" y="260.9141605200417" width="15" height="39.08583947995831" fill="#e7e5e4" opacity=".8"/><rect x="754" y="265.02016508104003" width="15" height="34.97983491895999" fill="#e7e5e4" opacity=".8"/><text x="610" y="340" font-family="ui-monospace,monospace" font-size="15" fill="#d6dcdd" opacity=".75">same expected SFS</text><line x1="890" y1="196" x2="1145" y2="196" stroke="#d6dcdd" stroke-width="2" opacity=".65"/><line x1="1015" y1="100" x2="1015" y2="294" stroke="#d6dcdd" stroke-width="2" stroke-dasharray="8 7" opacity=".75"/><circle cx="944" cy="150" r="10" fill="#f59e0b"/><line x1="944" y1="150" x2="1015" y2="150" stroke="#f59e0b" stroke-width="4"/><circle cx="1114" cy="242" r="10" fill="#38bdf8"/><line x1="1015" y1="242" x2="1114" y2="242" stroke="#38bdf8" stroke-width="4"/><text x="938" y="130" text-anchor="middle" font-family="ui-monospace,monospace" font-size="18" fill="#f59e0b">0.441</text><text x="1114" y="222" text-anchor="middle" font-family="ui-monospace,monospace" font-size="18" fill="#38bdf8">1.794</text><text x="1015" y="86" text-anchor="middle" font-family="ui-monospace,monospace" font-size="15" fill="#d6dcdd">no change = 1</text><text x="888" y="340" font-family="ui-monospace,monospace" font-size="15" fill="#d6dcdd" opacity=".75">opposite calendar targets</text>
</svg>