<svg xmlns="http://www.w3.org/2000/svg" viewBox="0 0 1200 400" role="img" aria-hidden="true">
<defs>
<linearGradient id="bg" x1="0" y1="0" x2="1" y2="1">
<stop offset="0" stop-color="#151a1e"/><stop offset="1" stop-color="#1e2a2e"/>
</linearGradient>
<radialGradient id="glow" cx="0.75" cy="0.3" r="0.9">
<stop offset="0" stop-color="#5eead4" stop-opacity="0.25"/><stop offset="1" stop-color="#5eead4" stop-opacity="0"/>
</radialGradient>
</defs>
<rect width="1200" height="400" fill="url(#bg)"/>
<rect width="1200" height="400" fill="url(#glow)"/>
<rect x="65" y="65" width="31" height="31" rx="3" fill="#fbbf24" opacity="1"/><rect x="108" y="65" width="31" height="31" rx="3" fill="#fbbf24" opacity="1"/><rect x="151" y="65" width="31" height="31" rx="3" fill="#5eead4" opacity="0.55"/><rect x="194" y="65" width="31" height="31" rx="3" fill="#5eead4" opacity="0.55"/><rect x="237" y="65" width="31" height="31" rx="3" fill="#5eead4" opacity="0.55"/><rect x="280" y="65" width="31" height="31" rx="3" fill="#5eead4" opacity="0.55"/><rect x="65" y="108" width="31" height="31" rx="3" fill="#fbbf24" opacity="1"/><rect x="108" y="108" width="31" height="31" rx="3" fill="#fbbf24" opacity="1"/><rect x="151" y="108" width="31" height="31" rx="3" fill="#5eead4" opacity="0.55"/><rect x="194" y="108" width="31" height="31" rx="3" fill="#5eead4" opacity="0.55"/><rect x="237" y="108" width="31" height="31" rx="3" fill="#5eead4" opacity="0.55"/><rect x="280" y="108" width="31" height="31" rx="3" fill="#5eead4" opacity="0.55"/><rect x="65" y="151" width="31" height="31" rx="3" fill="#5eead4" opacity="0.55"/><rect x="108" y="151" width="31" height="31" rx="3" fill="#5eead4" opacity="0.55"/><rect x="151" y="151" width="31" height="31" rx="3" fill="#5eead4" opacity="0.55"/><rect x="194" y="151" width="31" height="31" rx="3" fill="#5eead4" opacity="0.55"/><rect x="237" y="151" width="31" height="31" rx="3" fill="#5eead4" opacity="0.55"/><rect x="280" y="151" width="31" height="31" rx="3" fill="#5eead4" opacity="0.55"/><rect x="65" y="194" width="31" height="31" rx="3" fill="#5eead4" opacity="0.55"/><rect x="108" y="194" width="31" height="31" rx="3" fill="#5eead4" opacity="0.55"/><rect x="151" y="194" width="31" height="31" rx="3" fill="#5eead4" opacity="0.55"/><rect x="194" y="194" width="31" height="31" rx="3" fill="#5eead4" opacity="0.55"/><rect x="237" y="194" width="31" height="31" rx="3" fill="#5eead4" opacity="0.55"/><rect x="280" y="194" width="31" height="31" rx="3" fill="#5eead4" opacity="0.55"/><rect x="65" y="237" width="31" height="31" rx="3" fill="#5eead4" opacity="0.55"/><rect x="108" y="237" width="31" height="31" rx="3" fill="#5eead4" opacity="0.55"/><rect x="151" y="237" width="31" height="31" rx="3" fill="#5eead4" opacity="0.55"/><rect x="194" y="237" width="31" height="31" rx="3" fill="#5eead4" opacity="0.55"/><rect x="237" y="237" width="31" height="31" rx="3" fill="#5eead4" opacity="0.55"/><rect x="280" y="237" width="31" height="31" rx="3" fill="#5eead4" opacity="0.55"/><rect x="65" y="280" width="31" height="31" rx="3" fill="#5eead4" opacity="0.55"/><rect x="108" y="280" width="31" height="31" rx="3" fill="#5eead4" opacity="0.55"/><rect x="151" y="280" width="31" height="31" rx="3" fill="#5eead4" opacity="0.55"/><rect x="194" y="280" width="31" height="31" rx="3" fill="#5eead4" opacity="0.55"/><rect x="237" y="280" width="31" height="31" rx="3" fill="#5eead4" opacity="0.55"/><rect x="280" y="280" width="31" height="31" rx="3" fill="#5eead4" opacity="0.55"/><path d="M350 185 H490 M480 175 L490 185 L480 195" stroke="#fbbf24" stroke-width="3" fill="none"/><text class="og-hide" x="190" y="365" text-anchor="middle" fill="#cbd5d1" font-family="monospace" font-size="17">common pivot · local minors</text><text class="og-hide" x="840" y="110" text-anchor="middle" fill="#e7e5e4" font-family="Georgia" font-size="34">A sharp local threshold</text><text class="og-hide" x="840" y="185" text-anchor="middle" fill="#fbbf24" font-family="Georgia" font-size="38">total positivity</text><text class="og-hide" x="840" y="250" text-anchor="middle" fill="#5eead4" font-family="monospace" font-size="20">simultaneous ratio transfer</text><text class="og-hide" x="840" y="325" text-anchor="middle" fill="#cbd5d1" font-family="monospace" font-size="17">UNREFEREED CANDIDATE</text>
</svg>