<svg xmlns="http://www.w3.org/2000/svg" viewBox="0 0 1200 400" role="img" aria-hidden="true">
<defs>
<linearGradient id="bg" x1="0" y1="0" x2="1" y2="1">
<stop offset="0" stop-color="#151a1e"/><stop offset="1" stop-color="#1e2a2e"/>
</linearGradient>
<radialGradient id="glow" cx="0.75" cy="0.3" r="0.9">
<stop offset="0" stop-color="#a78bfa" stop-opacity="0.25"/><stop offset="1" stop-color="#a78bfa" stop-opacity="0"/>
</radialGradient>
</defs>
<rect width="1200" height="400" fill="url(#bg)"/>
<rect width="1200" height="400" fill="url(#glow)"/>
<rect x="65" y="70" width="78" height="105" rx="9" fill="#a78bfa" fill-opacity=".12" stroke="#a78bfa" stroke-width="3"/><circle cx="104" cy="122" r="20" fill="#a78bfa"/><rect x="173" y="70" width="78" height="105" rx="9" fill="#a78bfa" fill-opacity=".12" stroke="#a78bfa" stroke-width="3"/><circle cx="212" cy="122" r="8" fill="#a78bfa"/><rect x="281" y="70" width="78" height="105" rx="9" fill="#a78bfa" fill-opacity=".12" stroke="#a78bfa" stroke-width="3"/><circle cx="320" cy="122" r="8" fill="#a78bfa"/><rect x="389" y="70" width="78" height="105" rx="9" fill="#a78bfa" fill-opacity=".12" stroke="#a78bfa" stroke-width="3"/><circle cx="428" cy="122" r="8" fill="#a78bfa"/><rect x="65" y="200" width="78" height="105" rx="9" fill="#2dd4bf" fill-opacity=".12" stroke="#2dd4bf" stroke-width="3"/><circle cx="104" cy="252" r="20" fill="#2dd4bf"/><rect x="173" y="200" width="78" height="105" rx="9" fill="#2dd4bf" fill-opacity=".12" stroke="#2dd4bf" stroke-width="3"/><circle cx="212" cy="252" r="8" fill="#2dd4bf"/><rect x="281" y="200" width="78" height="105" rx="9" fill="#2dd4bf" fill-opacity=".12" stroke="#2dd4bf" stroke-width="3"/><circle cx="320" cy="252" r="8" fill="#2dd4bf"/><rect x="389" y="200" width="78" height="105" rx="9" fill="#2dd4bf" fill-opacity=".12" stroke="#2dd4bf" stroke-width="3"/><circle cx="428" cy="252" r="8" fill="#2dd4bf"/><text class="og-hide" x="265" y="355" text-anchor="middle" fill="#cbd5d1" font-family="monospace" font-size="17">two classes · two fixed-point counts</text><text class="og-hide" x="840" y="105" text-anchor="middle" fill="#e7e5e4" font-family="Georgia" font-size="35">What remains of a shuffle?</text><text class="og-hide" x="840" y="180" text-anchor="middle" fill="#a78bfa" font-family="Georgia" font-size="34">Two counts. One full law.</text><text class="og-hide" x="840" y="255" text-anchor="middle" fill="#2dd4bf" font-family="monospace" font-size="22">vanishing-bias crossover</text><text class="og-hide" x="840" y="330" text-anchor="middle" fill="#cbd5d1" font-family="monospace" font-size="17">UNREFEREED CANDIDATE</text>
</svg>