<svg xmlns="http://www.w3.org/2000/svg" viewBox="0 0 1440 480" role="img" aria-labelledby="title desc">
<title id="title">Two curves agree near zero, then separate</title>
<desc id="desc">Ivory shows y=z. Gold shows y=z−2z³+z⁴. This is a real-slice illustration of the exact example, not a complex-dynamics simulation.</desc>
<defs><clipPath id="bounds"><rect width="1440" height="480"/></clipPath></defs>
<rect width="1440" height="480" fill="#0a2c28"/>
<g stroke="#2dd4bf" stroke-opacity=".10" stroke-width="1"><path d="M0 0V480"/><path d="M60 0V480"/><path d="M120 0V480"/><path d="M180 0V480"/><path d="M240 0V480"/><path d="M300 0V480"/><path d="M360 0V480"/><path d="M420 0V480"/><path d="M480 0V480"/><path d="M540 0V480"/><path d="M600 0V480"/><path d="M660 0V480"/><path d="M720 0V480"/><path d="M780 0V480"/><path d="M840 0V480"/><path d="M900 0V480"/><path d="M960 0V480"/><path d="M1020 0V480"/><path d="M1080 0V480"/><path d="M1140 0V480"/><path d="M1200 0V480"/><path d="M1260 0V480"/><path d="M1320 0V480"/><path d="M1380 0V480"/><path d="M1440 0V480"/><path d="M0 0H1440"/><path d="M0 60H1440"/><path d="M0 120H1440"/><path d="M0 180H1440"/><path d="M0 240H1440"/><path d="M0 300H1440"/><path d="M0 360H1440"/><path d="M0 420H1440"/><path d="M0 480H1440"/></g>
<g clip-path="url(#bounds)" fill="none"><path d="M0 240H1440M720 0V480" stroke="#a7d5cc" stroke-opacity=".35"/>
<path d="M237.00,464.25 L239.42,463.13 L241.83,462.01 L244.25,460.89 L246.66,459.76 L249.08,458.64 L251.49,457.52 L253.90,456.40 L256.32,455.28 L258.74,454.16 L261.15,453.04 L263.57,451.92 L265.98,450.79 L268.40,449.67 L270.81,448.55 L273.23,447.43 L275.64,446.31 L278.06,445.19 L280.47,444.07 L282.89,442.95 L285.30,441.82 L287.71,440.70 L290.13,439.58 L292.55,438.46 L294.96,437.34 L297.38,436.22 L299.79,435.10 L302.21,433.98 L304.62,432.86 L307.04,431.73 L309.45,430.61 L311.87,429.49 L314.28,428.37 L316.70,427.25 L319.11,426.13 L321.53,425.01 L323.94,423.88 L326.36,422.76 L328.77,421.64 L331.19,420.52 L333.60,419.40 L336.02,418.28 L338.43,417.16 L340.85,416.04 L343.26,414.91 L345.68,413.79 L348.09,412.67 L350.51,411.55 L352.92,410.43 L355.34,409.31 L357.75,408.19 L360.17,407.07 L362.58,405.94 L365.00,404.82 L367.41,403.70 L369.82,402.58 L372.24,401.46 L374.66,400.34 L377.07,399.22 L379.49,398.10 L381.90,396.98 L384.31,395.85 L386.73,394.73 L389.15,393.61 L391.56,392.49 L393.98,391.37 L396.39,390.25 L398.81,389.13 L401.22,388.00 L403.63,386.88 L406.05,385.76 L408.47,384.64 L410.88,383.52 L413.30,382.40 L415.71,381.28 L418.13,380.16 L420.54,379.03 L422.96,377.91 L425.37,376.79 L427.79,375.67 L430.20,374.55 L432.62,373.43 L435.03,372.31 L437.44,371.19 L439.86,370.06 L442.27,368.94 L444.69,367.82 L447.11,366.70 L449.52,365.58 L451.94,364.46 L454.35,363.34 L456.77,362.22 L459.18,361.09 L461.60,359.97 L464.01,358.85 L466.42,357.73 L468.84,356.61 L471.25,355.49 L473.67,354.37 L476.09,353.25 L478.50,352.13 L480.92,351.00 L483.33,349.88 L485.75,348.76 L488.16,347.64 L490.57,346.52 L492.99,345.40 L495.41,344.28 L497.82,343.15 L500.24,342.03 L502.65,340.91 L505.07,339.79 L507.48,338.67 L509.89,337.55 L512.31,336.43 L514.73,335.31 L517.14,334.19 L519.56,333.06 L521.97,331.94 L524.38,330.82 L526.80,329.70 L529.21,328.58 L531.63,327.46 L534.05,326.34 L536.46,325.21 L538.88,324.09 L541.29,322.97 L543.71,321.85 L546.12,320.73 L548.54,319.61 L550.95,318.49 L553.37,317.37 L555.78,316.25 L558.20,315.12 L560.61,314.00 L563.03,312.88 L565.44,311.76 L567.86,310.64 L570.27,309.52 L572.69,308.40 L575.10,307.27 L577.51,306.15 L579.93,305.03 L582.35,303.91 L584.76,302.79 L587.18,301.67 L589.59,300.55 L592.00,299.43 L594.42,298.31 L596.84,297.18 L599.25,296.06 L601.66,294.94 L604.08,293.82 L606.50,292.70 L608.91,291.58 L611.33,290.46 L613.74,289.33 L616.15,288.21 L618.57,287.09 L620.99,285.97 L623.40,284.85 L625.81,283.73 L628.23,282.61 L630.64,281.49 L633.06,280.37 L635.48,279.24 L637.89,278.12 L640.31,277.00 L642.72,275.88 L645.13,274.76 L647.55,273.64 L649.96,272.52 L652.38,271.39 L654.79,270.27 L657.21,269.15 L659.63,268.03 L662.04,266.91 L664.46,265.79 L666.87,264.67 L669.29,263.55 L671.70,262.43 L674.12,261.30 L676.53,260.18 L678.95,259.06 L681.36,257.94 L683.77,256.82 L686.19,255.70 L688.61,254.58 L691.02,253.45 L693.43,252.33 L695.85,251.21 L698.26,250.09 L700.68,248.97 L703.10,247.85 L705.51,246.73 L707.92,245.61 L710.34,244.49 L712.75,243.36 L715.17,242.24 L717.59,241.12 L720.00,240.00 L722.41,238.88 L724.83,237.76 L727.25,236.64 L729.66,235.51 L732.08,234.39 L734.49,233.27 L736.90,232.15 L739.32,231.03 L741.74,229.91 L744.15,228.79 L746.57,227.67 L748.98,226.55 L751.39,225.42 L753.81,224.30 L756.23,223.18 L758.64,222.06 L761.05,220.94 L763.47,219.82 L765.88,218.70 L768.30,217.57 L770.71,216.45 L773.13,215.33 L775.54,214.21 L777.96,213.09 L780.38,211.97 L782.79,210.85 L785.20,209.73 L787.62,208.60 L790.03,207.48 L792.45,206.36 L794.87,205.24 L797.28,204.12 L799.70,203.00 L802.11,201.88 L804.53,200.76 L806.94,199.63 L809.35,198.51 L811.77,197.39 L814.18,196.27 L816.60,195.15 L819.01,194.03 L821.43,192.91 L823.85,191.79 L826.26,190.67 L828.67,189.54 L831.09,188.42 L833.50,187.30 L835.92,186.18 L838.34,185.06 L840.75,183.94 L843.16,182.82 L845.58,181.70 L848.00,180.57 L850.41,179.45 L852.83,178.33 L855.24,177.21 L857.65,176.09 L860.07,174.97 L862.48,173.85 L864.90,172.72 L867.31,171.60 L869.73,170.48 L872.14,169.36 L874.56,168.24 L876.98,167.12 L879.39,166.00 L881.80,164.88 L884.22,163.75 L886.63,162.63 L889.05,161.51 L891.47,160.39 L893.88,159.27 L896.30,158.15 L898.71,157.03 L901.13,155.91 L903.54,154.78 L905.95,153.66 L908.37,152.54 L910.78,151.42 L913.20,150.30 L915.62,149.18 L918.03,148.06 L920.44,146.94 L922.86,145.82 L925.27,144.69 L927.69,143.57 L930.10,142.45 L932.52,141.33 L934.93,140.21 L937.35,139.09 L939.76,137.97 L942.18,136.85 L944.60,135.72 L947.01,134.60 L949.43,133.48 L951.84,132.36 L954.25,131.24 L956.67,130.12 L959.08,129.00 L961.50,127.87 L963.91,126.75 L966.33,125.63 L968.75,124.51 L971.16,123.39 L973.58,122.27 L975.99,121.15 L978.40,120.03 L980.82,118.91 L983.23,117.78 L985.65,116.66 L988.07,115.54 L990.48,114.42 L992.89,113.30 L995.31,112.18 L997.73,111.06 L1000.14,109.94 L1002.56,108.81 L1004.97,107.69 L1007.38,106.57 L1009.80,105.45 L1012.21,104.33 L1014.63,103.21 L1017.04,102.09 L1019.46,100.97 L1021.87,99.84 L1024.29,98.72 L1026.70,97.60 L1029.12,96.48 L1031.53,95.36 L1033.95,94.24 L1036.37,93.12 L1038.78,92.00 L1041.19,90.87 L1043.61,89.75 L1046.03,88.63 L1048.44,87.51 L1050.86,86.39 L1053.27,85.27 L1055.68,84.15 L1058.10,83.03 L1060.52,81.90 L1062.93,80.78 L1065.35,79.66 L1067.76,78.54 L1070.17,77.42 L1072.59,76.30 L1075.00,75.18 L1077.42,74.06 L1079.84,72.93 L1082.25,71.81 L1084.66,70.69 L1087.08,69.57 L1089.49,68.45 L1091.91,67.33 L1094.32,66.21 L1096.74,65.09 L1099.15,63.96 L1101.57,62.84 L1103.99,61.72 L1106.40,60.60 L1108.82,59.48 L1111.23,58.36 L1113.64,57.24 L1116.06,56.11 L1118.47,54.99 L1120.89,53.87 L1123.30,52.75 L1125.72,51.63 L1128.13,50.51 L1130.55,49.39 L1132.96,48.27 L1135.38,47.15 L1137.80,46.02 L1140.21,44.90 L1142.62,43.78 L1145.04,42.66 L1147.45,41.54 L1149.87,40.42 L1152.28,39.30 L1154.70,38.18 L1157.12,37.05 L1159.53,35.93 L1161.94,34.81 L1164.36,33.69 L1166.77,32.57 L1169.19,31.45 L1171.61,30.33 L1174.02,29.21 L1176.43,28.08 L1178.85,26.96 L1181.27,25.84 L1183.68,24.72 L1186.10,23.60 L1188.51,22.48 L1190.92,21.36 L1193.34,20.24 L1195.75,19.11 L1198.17,17.99 L1200.59,16.87 L1203.00,15.75" stroke="#f0fdfa" stroke-width="4"/>
<path d="M237.00,-469.95 L239.42,-455.45 L241.83,-441.13 L244.25,-427.01 L246.66,-413.07 L249.08,-399.32 L251.49,-385.76 L253.90,-372.37 L256.32,-359.17 L258.74,-346.14 L261.15,-333.30 L263.57,-320.63 L265.98,-308.14 L268.40,-295.82 L270.81,-283.67 L273.23,-271.70 L275.64,-259.89 L278.06,-248.26 L280.47,-236.79 L282.89,-225.48 L285.30,-214.34 L287.71,-203.37 L290.13,-192.55 L292.55,-181.90 L294.96,-171.40 L297.38,-161.06 L299.79,-150.88 L302.21,-140.85 L304.62,-130.98 L307.04,-121.25 L309.45,-111.68 L311.87,-102.26 L314.28,-92.99 L316.70,-83.86 L319.11,-74.88 L321.53,-66.05 L323.94,-57.35 L326.36,-48.80 L328.77,-40.39 L331.19,-32.12 L333.60,-23.98 L336.02,-15.99 L338.43,-8.13 L340.85,-0.40 L343.26,7.20 L345.68,14.66 L348.09,21.99 L350.51,29.20 L352.92,36.27 L355.34,43.22 L357.75,50.04 L360.17,56.74 L362.58,63.32 L365.00,69.77 L367.41,76.11 L369.82,82.32 L372.24,88.42 L374.66,94.39 L377.07,100.26 L379.49,106.01 L381.90,111.64 L384.31,117.16 L386.73,122.57 L389.15,127.87 L391.56,133.06 L393.98,138.15 L396.39,143.13 L398.81,148.00 L401.22,152.76 L403.63,157.43 L406.05,161.99 L408.47,166.45 L410.88,170.81 L413.30,175.07 L415.71,179.24 L418.13,183.31 L420.54,187.28 L422.96,191.15 L425.37,194.94 L427.79,198.63 L430.20,202.23 L432.62,205.74 L435.03,209.16 L437.44,212.49 L439.86,215.74 L442.27,218.90 L444.69,221.97 L447.11,224.97 L449.52,227.87 L451.94,230.70 L454.35,233.44 L456.77,236.11 L459.18,238.70 L461.60,241.20 L464.01,243.64 L466.42,245.99 L468.84,248.27 L471.25,250.48 L473.67,252.61 L476.09,254.68 L478.50,256.67 L480.92,258.59 L483.33,260.44 L485.75,262.22 L488.16,263.94 L490.57,265.59 L492.99,267.17 L495.41,268.69 L497.82,270.15 L500.24,271.54 L502.65,272.88 L505.07,274.15 L507.48,275.36 L509.89,276.51 L512.31,277.61 L514.73,278.65 L517.14,279.63 L519.56,280.55 L521.97,281.43 L524.38,282.24 L526.80,283.01 L529.21,283.72 L531.63,284.38 L534.05,284.99 L536.46,285.56 L538.88,286.07 L541.29,286.54 L543.71,286.96 L546.12,287.33 L548.54,287.66 L550.95,287.94 L553.37,288.18 L555.78,288.37 L558.20,288.53 L560.61,288.64 L563.03,288.71 L565.44,288.75 L567.86,288.74 L570.27,288.70 L572.69,288.62 L575.10,288.50 L577.51,288.34 L579.93,288.15 L582.35,287.93 L584.76,287.67 L587.18,287.38 L589.59,287.06 L592.00,286.71 L594.42,286.32 L596.84,285.91 L599.25,285.46 L601.66,284.99 L604.08,284.49 L606.50,283.96 L608.91,283.41 L611.33,282.83 L613.74,282.22 L616.15,281.59 L618.57,280.94 L620.99,280.26 L623.40,279.56 L625.81,278.84 L628.23,278.09 L630.64,277.33 L633.06,276.55 L635.48,275.75 L637.89,274.92 L640.31,274.08 L642.72,273.23 L645.13,272.35 L647.55,271.46 L649.96,270.56 L652.38,269.64 L654.79,268.70 L657.21,267.75 L659.63,266.79 L662.04,265.81 L664.46,264.83 L666.87,263.83 L669.29,262.82 L671.70,261.80 L674.12,260.77 L676.53,259.73 L678.95,258.68 L681.36,257.62 L683.77,256.56 L686.19,255.49 L688.61,254.41 L691.02,253.32 L693.43,252.23 L695.85,251.14 L698.26,250.04 L700.68,248.93 L703.10,247.82 L705.51,246.71 L707.92,245.60 L710.34,244.48 L712.75,243.36 L715.17,242.24 L717.59,241.12 L720.00,240.00 L722.41,238.88 L724.83,237.76 L727.25,236.64 L729.66,235.52 L732.08,234.40 L734.49,233.29 L736.90,232.18 L739.32,231.07 L741.74,229.96 L744.15,228.86 L746.57,227.76 L748.98,226.67 L751.39,225.58 L753.81,224.50 L756.23,223.42 L758.64,222.35 L761.05,221.29 L763.47,220.23 L765.88,219.18 L768.30,218.13 L770.71,217.10 L773.13,216.07 L775.54,215.05 L777.96,214.04 L780.38,213.04 L782.79,212.05 L785.20,211.07 L787.62,210.10 L790.03,209.14 L792.45,208.19 L794.87,207.25 L797.28,206.33 L799.70,205.41 L802.11,204.51 L804.53,203.62 L806.94,202.74 L809.35,201.87 L811.77,201.02 L814.18,200.18 L816.60,199.35 L819.01,198.54 L821.43,197.74 L823.85,196.95 L826.26,196.18 L828.67,195.43 L831.09,194.68 L833.50,193.96 L835.92,193.25 L838.34,192.55 L840.75,191.87 L843.16,191.21 L845.58,190.56 L848.00,189.93 L850.41,189.31 L852.83,188.72 L855.24,188.13 L857.65,187.57 L860.07,187.02 L862.48,186.49 L864.90,185.98 L867.31,185.48 L869.73,185.00 L872.14,184.54 L874.56,184.10 L876.98,183.68 L879.39,183.27 L881.80,182.88 L884.22,182.51 L886.63,182.16 L889.05,181.83 L891.47,181.51 L893.88,181.22 L896.30,180.94 L898.71,180.68 L901.13,180.44 L903.54,180.22 L905.95,180.02 L908.37,179.84 L910.78,179.67 L913.20,179.53 L915.62,179.41 L918.03,179.30 L920.44,179.21 L922.86,179.15 L925.27,179.10 L927.69,179.07 L930.10,179.06 L932.52,179.07 L934.93,179.10 L937.35,179.15 L939.76,179.22 L942.18,179.31 L944.60,179.42 L947.01,179.54 L949.43,179.69 L951.84,179.85 L954.25,180.04 L956.67,180.24 L959.08,180.46 L961.50,180.70 L963.91,180.96 L966.33,181.24 L968.75,181.54 L971.16,181.85 L973.58,182.19 L975.99,182.54 L978.40,182.91 L980.82,183.30 L983.23,183.71 L985.65,184.14 L988.07,184.58 L990.48,185.04 L992.89,185.52 L995.31,186.02 L997.73,186.54 L1000.14,187.07 L1002.56,187.62 L1004.97,188.18 L1007.38,188.77 L1009.80,189.37 L1012.21,189.98 L1014.63,190.62 L1017.04,191.27 L1019.46,191.93 L1021.87,192.61 L1024.29,193.31 L1026.70,194.02 L1029.12,194.75 L1031.53,195.49 L1033.95,196.25 L1036.37,197.02 L1038.78,197.81 L1041.19,198.61 L1043.61,199.42 L1046.03,200.25 L1048.44,201.09 L1050.86,201.94 L1053.27,202.81 L1055.68,203.69 L1058.10,204.58 L1060.52,205.49 L1062.93,206.41 L1065.35,207.33 L1067.76,208.27 L1070.17,209.22 L1072.59,210.19 L1075.00,211.16 L1077.42,212.14 L1079.84,213.13 L1082.25,214.13 L1084.66,215.14 L1087.08,216.16 L1089.49,217.19 L1091.91,218.22 L1094.32,219.27 L1096.74,220.32 L1099.15,221.38 L1101.57,222.44 L1103.99,223.51 L1106.40,224.59 L1108.82,225.67 L1111.23,226.76 L1113.64,227.86 L1116.06,228.96 L1118.47,230.06 L1120.89,231.16 L1123.30,232.27 L1125.72,233.39 L1128.13,234.50 L1130.55,235.62 L1132.96,236.74 L1135.38,237.86 L1137.80,238.98 L1140.21,240.10 L1142.62,241.22 L1145.04,242.34 L1147.45,243.46 L1149.87,244.58 L1152.28,245.69 L1154.70,246.81 L1157.12,247.92 L1159.53,249.03 L1161.94,250.13 L1164.36,251.23 L1166.77,252.33 L1169.19,253.42 L1171.61,254.50 L1174.02,255.58 L1176.43,256.65 L1178.85,257.71 L1181.27,258.77 L1183.68,259.82 L1186.10,260.86 L1188.51,261.89 L1190.92,262.91 L1193.34,263.92 L1195.75,264.91 L1198.17,265.90 L1200.59,266.87 L1203.00,267.84" stroke="#fbbf24" stroke-width="5"/>
</g><circle cx="720" cy="240" r="7" fill="#f0fdfa" stroke="#0a2c28" stroke-width="3"/>
</svg>
